<?xml version="1.0" encoding="utf-8"?>
<svg version="1.1" id="Layer_1"
xmlns="http://www.w3.org/2000/svg"
xmlns:xlink="http://www.w3.org/1999/xlink"
width="550px" height="400px"
xml:space="preserve">
<g id="PathID_1" transform="matrix(1.26938, 0, 0, 0.792828, 215.05, 241.05)" opacity="1">
<path style="fill:#006DA1;fill-opacity:1" d="M71.85 -28.85L71.85 28.85L-71.85 28.85L-71.85 -28.85L71.85 -28.85" />
</g>
<g id="PathID_2" transform="matrix(1.26938, 0, 0, 0.792828, 215.05, 241.05)" opacity="1">
</g>
<g id="PathID_3" transform="matrix(0.892555, 0, 0, 0.792828, 366.65, 241.05)" opacity="1">
<path style="fill:#00ACFF;fill-opacity:1" d="M-66.8 -28.85L66.8 -28.85L66.8 28.85L-66.8 28.85L-66.8 -28.85" />
</g>
<g id="PathID_4" transform="matrix(0.892555, 0, 0, 0.792828, 366.65, 241.05)" opacity="1">
</g>
<g id="PathID_5" transform="matrix(0.650234, 0, 0, 0.75849, 325.15, 249.3)" opacity="1">
<path style="fill:#FFFFFF;fill-opacity:1" d="M0.6 0L15.8 -35.75L20.9 -35.75L36.15 0L31.3 0L26.55 -11.25L14.6 -11.25L15.85 -15L24.8 -15L18.2 -30.95L5.4 0L0.6 0" />
</g>
<g id="PathID_6" transform="matrix(0.650234, 0, 0, 0.75849, 325.15, 249.3)" opacity="1">
</g>
<g id="PathID_7" transform="matrix(0.650234, 0, 0, 0.75849, 349.05, 249.3)" opacity="1">
<path style="fill:#FFFFFF;fill-opacity:1" d="M3.75 0L3.75 -26.25L6.85 -26.25L7.65 -22.95Q12.15 -26.25 16.6 -26.25Q21.55 -26.25 23.65 -22.65Q28.65 -26.25 33.05 -26.25Q41.35 -26.25 41.35 -16.25L41.35 0L36.75 0L36.75 -16.5Q36.75 -22.4 31.8 -22.4Q28.1 -22.4 24.85 -19L24.85 0L20.25 0L20.25 -16.45Q20.25 -22.4 15.35 -22.4Q11.45 -22.4 8.35 -19L8.35 0L3.75 0" />
</g>
<g id="PathID_8" transform="matrix(0.650234, 0, 0, 0.75849, 349.05, 249.3)" opacity="1">
</g>
<g id="PathID_9" transform="matrix(0.650234, 0, 0, 0.75849, 378.4, 249.3)" opacity="1">
<path style="fill:#FFFFFF;fill-opacity:1" d="M8.35 -35.75L8.35 -32L3.75 -32L3.75 -35.75L8.35 -35.75M8.35 -26.25L8.35 0L3.75 0L3.75 -26.25L8.35 -26.25" />
</g>
<g id="PathID_10" transform="matrix(0.650234, 0, 0, 0.75849, 378.4, 249.3)" opacity="1">
</g>
<g id="PathID_11" transform="matrix(0.650234, 0, 0, 0.75849, 386.3, 249.3)" opacity="1">
<path style="fill:#FFFFFF;fill-opacity:1" d="M3.75 0L3.75 -26.25L6.85 -26.25L7.7 -22.9Q12.45 -26.25 17.3 -26.25Q26.35 -26.25 26.35 -16.45L26.35 0L21.75 0L21.75 -16.55Q21.75 -22.4 15.9 -22.4Q11.95 -22.4 8.35 -19.05L8.35 0L3.75 0" />
</g>
<g id="PathID_12" transform="matrix(0.650234, 0, 0, 0.75849, 386.3, 249.3)" opacity="1">
</g>
<g id="PathID_13" transform="matrix(0.75849, 0, 0, 0.75849, 139.9, 248.85)" opacity="1">
<path style="fill:#FFFFFF;fill-opacity:1" d="M31.25 -1.25Q26.6 0.25 21.25 0.25Q2.5 0.25 2.5 -18.35Q2.5 -36 21.25 -36Q26.6 -36 31.25 -34.5L31.25 -30.5Q26.6 -32.25 21.75 -32.25Q7.1 -32.25 7.1 -18.35Q7.1 -3.5 21.75 -3.5Q26.6 -3.5 31.25 -5.25L31.25 -1.25" />
</g>
<g id="PathID_14" transform="matrix(0.75849, 0, 0, 0.75849, 139.9, 248.85)" opacity="1">
</g>
<g id="PathID_15" transform="matrix(0.75849, 0, 0, 0.75849, 166.2, 248.85)" opacity="1">
<path style="fill:#FFFFFF;fill-opacity:1" d="M3.75 0L3.75 -35.75L8.35 -35.75L8.35 -23.4Q12.45 -26.25 17.3 -26.25Q26.35 -26.25 26.35 -16.45L26.35 0L21.75 0L21.75 -16.55Q21.75 -22.4 15.9 -22.4Q11.95 -22.4 8.35 -19.05L8.35 0L3.75 0" />
</g>
<g id="PathID_16" transform="matrix(0.75849, 0, 0, 0.75849, 166.2, 248.85)" opacity="1">
</g>
<g id="PathID_17" transform="matrix(0.75849, 0, 0, 0.75849, 189.05, 248.85)" opacity="1">
<path style="fill:#FFFFFF;fill-opacity:1" d="M2.5 -8.15Q2.5 -16.25 13.15 -16.25Q17.05 -16.25 20 -15.75L20 -18.2Q20 -22.5 12.9 -22.5Q8.85 -22.5 4.6 -21.25L4.6 -25Q8.85 -26.25 12.9 -26.25Q24.6 -26.25 24.6 -17.85L24.6 0L22.25 0L20.4 -1.85Q17 0 12.35 0Q2.5 0 2.5 -8.15M13.15 -12.5Q7.1 -12.5 7.1 -8.25Q7.1 -3.75 12.35 -3.75Q17.15 -3.75 20 -5.8L20 -12Q17.25 -12.5 13.15 -12.5" />
</g>
<g id="PathID_18" transform="matrix(0.75849, 0, 0, 0.75849, 189.05, 248.85)" opacity="1">
</g>
<g id="PathID_19" transform="matrix(0.75849, 0, 0, 0.75849, 210.6, 248.85)" opacity="1">
<path style="fill:#FFFFFF;fill-opacity:1" d="M8.35 -35.75L8.35 -32L3.75 -32L3.75 -35.75L8.35 -35.75M8.35 -26.25L8.35 0L3.75 0L3.75 -26.25L8.35 -26.25" />
</g>
<g id="PathID_20" transform="matrix(0.75849, 0, 0, 0.75849, 210.6, 248.85)" opacity="1">
</g>
<g id="PathID_21" transform="matrix(0.75849, 0, 0, 0.75849, 219.8, 248.85)" opacity="1">
<path style="fill:#FFFFFF;fill-opacity:1" d="M3.75 0L3.75 -26.25L6.85 -26.25L7.7 -22.9Q12.45 -26.25 17.3 -26.25Q26.35 -26.25 26.35 -16.45L26.35 0L21.75 0L21.75 -16.55Q21.75 -22.4 15.9 -22.4Q11.95 -22.4 8.35 -19.05L8.35 0L3.75 0" />
</g>
<g id="PathID_22" transform="matrix(0.75849, 0, 0, 0.75849, 219.8, 248.85)" opacity="1">
</g>
<g id="PathID_23" transform="matrix(0.75849, 0, 0, 0.75849, 242.65, 248.85)" opacity="1">
<path style="fill:#FFFFFF;fill-opacity:1" d="M3.75 -30.5L6.65 -30.5L7.65 -26.25L13.75 -26.25L13.75 -22.5L8.35 -22.5L8.35 -7.4Q8.35 -3.75 11.55 -3.75L13.75 -3.75L13.75 0L10.35 0Q3.75 0 3.75 -7.05L3.75 -30.5" />
</g>
<g id="PathID_24" transform="matrix(0.75849, 0, 0, 0.75849, 242.65, 248.85)" opacity="1">
</g>
<g id="PathID_25" transform="matrix(0.75849, 0, 0, 0.75849, 254.95, 248.85)" opacity="1">
<path style="fill:#FFFFFF;fill-opacity:1" d="M2.5 -8.15Q2.5 -16.25 13.15 -16.25Q17.05 -16.25 20 -15.75L20 -18.2Q20 -22.5 12.9 -22.5Q8.85 -22.5 4.6 -21.25L4.6 -25Q8.85 -26.25 12.9 -26.25Q24.6 -26.25 24.6 -17.85L24.6 0L22.25 0L20.4 -1.85Q17 0 12.35 0Q2.5 0 2.5 -8.15M13.15 -12.5Q7.1 -12.5 7.1 -8.25Q7.1 -3.75 12.35 -3.75Q17.15 -3.75 20 -5.8L20 -12Q17.25 -12.5 13.15 -12.5" />
</g>
<g id="PathID_26" transform="matrix(0.75849, 0, 0, 0.75849, 254.95, 248.85)" opacity="1">
</g>
<g id="PathID_27" transform="matrix(0.75849, 0, 0, 0.75849, 276.5, 248.85)" opacity="1">
<path style="fill:#FFFFFF;fill-opacity:1" d="M3.75 0L3.75 -26.25L6.85 -26.25L7.7 -22.9Q11.15 -26.25 16 -26.25L16 -22.4Q11.3 -22.4 8.35 -19.05L8.35 0L3.75 0" />
</g>
<g id="PathID_28" transform="matrix(0.75849, 0, 0, 0.75849, 276.5, 248.85)" opacity="1">
</g>
<g id="PathID_29" transform="matrix(0.989487, 0, 0, 0.989487, 272.25, 165.85)" opacity="1">
<path style="fill:#72CFFC;fill-opacity:1" d="M35.8 -3.2Q33.9 17.1 19.95 32.1L11.8 33.45L0.2 34.3L-11.65 33.55Q-21.25 32.05 -30.5 28.7L-31.4 27.7Q-34.3 24.05 -35.65 19.7L-36 18.45Q-17.2 25.4 1.55 17.95Q20.8 10.4 28.45 -8.65Q33.65 -21.6 27.65 -34.25Q37.5 -20.2 35.8 -3.2" />
</g>
<g id="PathID_30" transform="matrix(0.989487, 0, 0, 0.989487, 272.25, 165.85)" opacity="1">
</g>
<g id="PathID_31" transform="matrix(0.989487, 0, 0, 0.989487, 300.1, 152.5)" opacity="1">
<path style="fill:#006DA1;fill-opacity:1" d="M29.1 -1.3Q27.9 4.35 26.3 9.95Q24.6 15.65 21.95 21Q17.6 29.7 11.55 37.45L10.3 37.95Q6 39.65 1.35 39.55L0.1 39.5Q12.5 23.75 11.25 3.65Q10 -17.05 -5.75 -30.2Q-16.45 -39.15 -30.35 -37.4Q-14 -42.35 1.7 -35.55Q20.4 -27.45 30.35 -9.55Q29.95 -5.35 29.1 -1.3" />
</g>
<g id="PathID_32" transform="matrix(0.989487, 0, 0, 0.989487, 300.1, 152.5)" opacity="1">
</g>
<g id="PathID_33" transform="matrix(0.989487, 0, 0, 0.989487, 287, 114.25)" opacity="1">
<path style="fill:#006DA1;fill-opacity:1" d="M29.55 -7.1Q36.5 -0.3 42 7.85L42.1 9.2Q42.35 13.8 40.85 18.2L40.45 19.4Q29.3 2.75 9.75 -2.3Q-10.3 -7.5 -27.7 3.4Q-39.5 10.8 -42.1 24.6Q-41.75 7.45 -30.45 -5.35Q-16.95 -20.6 3.2 -24.55Q7 -22.85 10.55 -20.85L20.4 -14.75Q25.35 -11.3 29.55 -7.1" />
</g>
<g id="PathID_34" transform="matrix(0.989487, 0, 0, 0.989487, 287, 114.25)" opacity="1">
</g>
<g id="PathID_35" transform="matrix(0.989487, 0, 0, 0.989487, 253.3, 127.05)" opacity="1">
<path style="fill:#00ACFF;fill-opacity:1" d="M26.9 -37.5Q7.6 -32.05 -3.2 -15.05Q-14.35 2.45 -9.35 22.35Q-5.95 35.85 6.35 42.6Q-9.8 37 -18.5 22.25Q-28.9 4.7 -26.4 -15.65L-20.6 -21.5Q-16.25 -25.45 -11.7 -29Q-6.95 -32.65 -1.65 -35.4Q7 -39.85 16.4 -42.55L17.7 -42.25Q22.2 -41.05 25.9 -38.3L26.9 -37.5" />
</g>
<g id="PathID_36" transform="matrix(0.989487, 0, 0, 0.989487, 253.3, 127.05)" opacity="1">
</g>
<g id="PathID_37" transform="matrix(0.989487, 0, 0, 0.989487, 254.55, 152.45)" opacity="1">
<path style="fill:#40BEFC;fill-opacity:1" d="M-38.9 -23.1L-38.2 -24.25Q-35.65 -28.15 -31.85 -30.85L-30.85 -31.55Q-31.6 -11.5 -18.75 4.05Q-5.6 20.05 14.9 21.45Q28.8 22.35 39 12.75Q28.65 26.4 11.95 30.1Q-7.95 34.55 -26.5 25.9L-30.35 18.6L-34.7 7.8Q-36.65 2.15 -37.65 -3.75Q-39.2 -13.3 -38.9 -23.1" />
</g>
<g id="PathID_38" transform="matrix(0.989487, 0, 0, 0.989487, 254.55, 152.45)" opacity="1">
</g>
</svg>
